<?xml version="1.0" encoding="utf-8"?>
<!-- Generator: Adobe Illustrator 15.0.0, SVG Export Plug-In . SVG Version: 6.00 Build 0)  -->
<!DOCTYPE svg PUBLIC "-//W3C//DTD SVG 1.1//EN" "http://www.w3.org/Graphics/SVG/1.1/DTD/svg11.dtd">
<svg version="1.1" id="图层_1" xmlns="http://www.w3.org/2000/svg" xmlns:xlink="http://www.w3.org/1999/xlink" x="0px" y="0px"
	 width="595.28px" height="841.89px" viewBox="0 0 595.28 841.89" enable-background="new 0 0 595.28 841.89" xml:space="preserve">
<circle fill="#2096D5" cx="285.752" cy="112.563" r="68.517"/>
<circle fill="none" stroke="#2096D5" stroke-width="20" stroke-miterlimit="10" cx="285.752" cy="679.996" r="68.517"/>
<path fill="none" stroke="#2096D5" stroke-width="20" stroke-miterlimit="10" d="M354.644,679.475
	c56.732,16.327,96.118,52.197,96.118,93.822c0,57.007-73.878,64.093-165.01,64.093c-91.133,0-165.01-7.086-165.01-64.093
	c0-41.718,39.563-77.654,96.5-93.931"/>
<line fill="none" stroke="#2096D5" stroke-width="20" stroke-miterlimit="10" x1="16.415" y1="207.021" x2="225.288" y2="647.736"/>
<path fill="none" stroke="#2096D5" stroke-width="20" stroke-miterlimit="10" d="M577.499,207.021
	c-329.3-212.532-561.084,0-561.084,0"/>
<path fill="none" stroke="#2096D5" stroke-width="20" stroke-miterlimit="10" d="M347.057,646.131l230.442-439.109"/>
<path fill="#2096D5" d="M18.309,195.668c6.504,0,11.776,5.275,11.776,11.777c0,6.503-5.272,11.773-11.776,11.773
	s-11.777-5.271-11.777-11.773C6.53,200.943,11.803,195.668,18.309,195.668z"/>
<path fill="#2096D5" d="M575.499,195.668c6.504,0,11.777,5.275,11.777,11.777c0,6.503-5.273,11.773-11.777,11.773
	c-6.505,0-11.777-5.271-11.777-11.773S568.994,195.668,575.499,195.668z"/>
<polyline fill="#2096D5" points="211.645,159.293 177.474,77.247 121.443,152.261 "/>
<polyline fill="#2096D5" points="456.709,152.261 400.68,77.247 366.508,159.293 "/>
</svg>
