<?xml version="1.0" standalone="no"?><!DOCTYPE svg PUBLIC "-//W3C//DTD SVG 1.1//EN" "http://www.w3.org/Graphics/SVG/1.1/DTD/svg11.dtd"><svg t="1525419389210" class="icon" style="" viewBox="0 0 1024 1024" version="1.1" xmlns="http://www.w3.org/2000/svg" p-id="6768" xmlns:xlink="http://www.w3.org/1999/xlink" width="200" height="200"><defs><style type="text/css"></style></defs><path d="M434.228729 752.311181c6.371104 0 12.737092-2.462075 17.548678-7.371898 9.498328-9.689686 9.341762-25.245987-0.349971-34.743292L252.071016 514.814092l199.35642-195.382922c9.691733-9.498328 9.848299-25.052582 0.349971-34.743292-9.498328-9.69071-25.053606-9.847276-34.743292-0.349971l-217.258139 212.929554c-4.716418 4.620227-7.372921 10.945283-7.372921 17.546631s2.656503 12.926404 7.372921 17.546631l217.258139 212.927507C421.815001 749.97395 428.024423 752.311181 434.228729 752.311181L434.228729 752.311181z" p-id="6769"></path><path d="M758.616794 751.287875c6.371104 0 12.737092-2.462075 17.548678-7.371898 9.498328-9.689686 9.341762-25.245987-0.349971-34.743292L576.459081 513.790786l199.35642-195.382922c9.691733-9.498328 9.848299-25.052582 0.349971-34.743292-9.498328-9.69071-25.053606-9.847276-34.743292-0.349971l-217.258139 212.929554c-4.716418 4.620227-7.372921 10.945283-7.372921 17.546631s2.656503 12.926404 7.372921 17.546631l217.258139 212.927507C746.203066 748.950643 752.412488 751.287875 758.616794 751.287875L758.616794 751.287875z" p-id="6770"></path></svg>