<?xml version="1.0" encoding="utf-8"?>
<!-- Generator: Adobe Illustrator 21.1.0, SVG Export Plug-In . SVG Version: 6.00 Build 0)  -->
<svg version="1.1" id="Layer_1" xmlns="http://www.w3.org/2000/svg" xmlns:xlink="http://www.w3.org/1999/xlink" x="0px" y="0px"
	 viewBox="0 0 46.2 16.3" style="enable-background:new 0 0 46.2 16.3;" xml:space="preserve">
<style type="text/css">
	.st0{display:none;}
	.st1{display:inline;fill:#E3E3E3;}
	.st2{display:inline;fill:none;stroke:#000000;stroke-linejoin:round;stroke-miterlimit:10;}
	.st3{display:inline;}
	.st4{fill:#000001;}
	.st5{font-family:'ArialMT';}
	.st6{font-size:8px;}
	.st7{display:inline;fill:none;stroke:#000000;stroke-width:0.5;stroke-linecap:round;stroke-linejoin:round;stroke-miterlimit:10;}
	.st8{fill:#E3E3E3;}
	.st9{fill:none;stroke:#000000;stroke-width:0.5;stroke-linecap:round;stroke-linejoin:round;stroke-miterlimit:10;}
	.st10{fill:none;stroke:#000000;stroke-linejoin:round;stroke-miterlimit:10;}
	.st11{display:inline;fill:none;stroke:#000000;stroke-width:0.25;stroke-miterlimit:10;}
	.st12{display:inline;fill:none;stroke:#000000;stroke-width:0.2574;stroke-miterlimit:10;}
	
		.st13{display:inline;fill:none;stroke:#000000;stroke-width:0.25;stroke-linecap:round;stroke-linejoin:round;stroke-miterlimit:10;}
</style>
<g id="brick240" class="st0">
	<polyline class="st1" points="0,1.7 28,1.7 28,14.7 0,14.7 	"/>
	<line class="st2" x1="0" y1="1.2" x2="28" y2="1.2"/>
	<line class="st2" x1="0" y1="15.2" x2="28" y2="15.2"/>
	<g class="st3">
		<text transform="matrix(1 0 0 1 30.9999 10.667)" class="st4 st5 st6">240</text>
	</g>
	<line class="st7" x1="0" y1="4.7" x2="3" y2="1.6"/>
	<line class="st7" x1="0" y1="11.7" x2="10" y2="1.7"/>
	<line class="st7" x1="4" y1="14.7" x2="17" y2="1.7"/>
	<line class="st7" x1="11" y1="14.7" x2="24" y2="1.7"/>
	<line class="st7" x1="19" y1="14.7" x2="28" y2="5.7"/>
	<line class="st7" x1="25" y1="14.8" x2="28" y2="11.7"/>
</g>
<g id="brick120">
	<polyline class="st8" points="0,4.7 28,4.7 28,11.7 0,11.7 	"/>
	<line class="st9" x1="0" y1="7.7" x2="3" y2="4.6"/>
	<line class="st9" x1="2.8" y1="12" x2="10" y2="4.7"/>
	<line class="st9" x1="9.8" y1="12" x2="17" y2="4.7"/>
	<line class="st9" x1="16.8" y1="12" x2="24" y2="4.7"/>
	<line class="st9" x1="24.8" y1="12" x2="28" y2="8.7"/>
	<line class="st10" x1="0" y1="4.2" x2="28" y2="4.2"/>
	<line class="st10" x1="0" y1="12.2" x2="28" y2="12.2"/>
</g>
<g id="gypBd120" class="st0">
	<polyline class="st1" points="0,4.7 28,4.7 28,11.7 0,11.7 	"/>
	<g class="st3">
		<text transform="matrix(1 0 0 1 30.9467 10.5635)" class="st4 st5 st6">120</text>
	</g>
	<line class="st2" x1="0" y1="4.2" x2="28" y2="4.2"/>
	<line class="st2" x1="0" y1="12.2" x2="28" y2="12.2"/>
	<line class="st11" x1="6.2" y1="4.5" x2="6.2" y2="12.1"/>
	<line class="st12" x1="11.4" y1="4.4" x2="11.4" y2="12.5"/>
	<line class="st11" x1="16.6" y1="4.5" x2="16.6" y2="12.1"/>
	<line class="st11" x1="21.8" y1="4.5" x2="21.8" y2="12.1"/>
	<line class="st11" x1="26" y1="4.5" x2="26" y2="12.1"/>
	<line class="st11" x1="1" y1="4.5" x2="1" y2="12.1"/>
</g>
<g id="non-brick120" class="st0">
	<polyline class="st1" points="0,4.7 28,4.7 28,11.7 0,11.7 	"/>
	<path class="st13" d="M0,8.4l4-4.1 M1.5,11.9l7.2-7.4 M6.4,11.9l7.2-7.4 M11.3,11.9l7.2-7.4 M16.2,11.9l7.2-7.4 M21.1,11.9l6.9-7"
		/>
	<line class="st2" x1="0" y1="4.2" x2="28" y2="4.2"/>
	<line class="st2" x1="0" y1="12.2" x2="28" y2="12.2"/>
	<path class="st13" d="M23.6,4.1L28,8.5 M19,4.3l7.2,7.4 M14.1,4.3l7.2,7.4 M9.2,4.3l7.2,7.4 M4.2,4.3l7.2,7.4 M0,5.1l6.4,6.6"/>
	<g class="st3">
		<text transform="matrix(1 0 0 1 30.9999 10.667)" class="st4 st5 st6">120</text>
	</g>
</g>
</svg>
